# xmcd
#
# Track frame offsets: 
#        150
#        12031
#        26527
#        38932
#        53232
#        57314
#        64925
#        78956
#        86772
#        98915
#        109503
#        116298
#        122750
#        130480
#        141312
#        151614
#        163019
#        171611
#
# Disc length: 2443 seconds
#
# Revision: 0
# Processed by: cddbd v1.5.2PL0 Copyright (c) Steve Scherf et al.
# Submitted via: ExactAudioCopy v0.95b3
#
DISCID=ee098912
DTITLE=The Nat King Cole Trio - Georgia On My Mind
DYEAR=2005
DGENRE=Blues
TTITLE0=Summertime
TTITLE1=They CAn't Take That Away From ME
TTITLE2=A Ghost Of A Chance
TTITLE3=Rockin' Chair
TTITLE4=Somebody Loves Me
TTITLE5=Sing You Sinners
TTITLE6=Let's Try Again
TTITLE7=It Had To Be You
TTITLE8=Georgia On My Mind
TTITLE9=He's Funny That Way
TTITLE10=What Is This Thing Called Love
TTITLE11=Blue Skies
TTITLE12=Lazy River
TTITLE13=I'm In Love With Someone
TTITLE14=G'bye Now
TTITLE15=Windy City Blues
TTITLE16=Don't Take Your Love From Me
TTITLE17=I'm Confessin'
EXTD=
EXTT0=
EXTT1=
EXTT2=
EXTT3=
EXTT4=
EXTT5=
EXTT6=
EXTT7=
EXTT8=
EXTT9=
EXTT10=
EXTT11=
EXTT12=
EXTT13=
EXTT14=
EXTT15=
EXTT16=
EXTT17=
PLAYORDER=
